<svg width="308" height="228" viewBox="0 0 308 228" fill="none" xmlns="http://www.w3.org/2000/svg">
<g clip-path="url(#clip0_5_189)">
<path opacity="0.1" d="M20.1586 89.3641H46.9277V125.916H22.1159C22.0526 126.294 21.9892 126.669 21.918 127.047H46.9277V156.519C46.8854 156.519 46.8432 156.488 46.8037 156.472C46.1002 156.192 45.3968 155.895 44.6934 155.581C44.543 155.513 44.3953 155.441 44.2423 155.375C43.5389 155.042 42.8354 154.69 42.132 154.318C41.8867 154.189 41.6414 154.054 41.4013 153.917C37.4961 151.734 33.9468 148.966 30.8762 145.709C30.7839 145.622 30.6995 145.527 30.6124 145.445C30.1851 144.98 29.7657 144.51 29.3595 144.029C29.2065 143.852 29.0587 143.672 28.9084 143.5C28.4283 142.914 27.964 142.306 27.5156 141.696C27.447 141.603 27.3837 141.513 27.3177 141.431C25.4807 138.885 23.9573 136.126 22.7806 133.214C22.7437 133.127 22.7094 133.031 22.6751 132.95C22.3111 132.025 21.9813 131.087 21.6964 130.13C21.5751 129.731 21.4564 129.337 21.3562 128.923C21.3192 128.804 21.2902 128.682 21.2586 128.563C19.7761 122.71 19.6046 116.628 19.6046 110.574C19.6046 109.87 19.6046 109.165 19.6046 108.46C19.6257 105.989 19.6547 103.52 19.6917 101.054C19.7057 100.42 19.7189 99.7829 19.7312 99.1434C19.7682 97.5245 19.8209 95.9021 19.8895 94.2762C19.9053 93.827 19.9264 93.3752 19.9502 92.9286C19.9607 92.6697 19.9739 92.4107 19.9897 92.1518C20.0372 91.2164 20.0935 90.2872 20.1586 89.3641Z" fill="#06A881"/>
<path opacity="0.1" d="M46.9277 48.6667H32.2426C34.6309 44.9264 37.239 41.3318 40.0534 37.9018C42.2375 35.2172 44.5378 32.6012 46.9277 30.0804V48.6667Z" fill="#06A881"/>
<path opacity="0.1" d="M46.9276 49.7923V88.2332H20.243C20.243 88.1222 20.2588 88.0086 20.2694 87.8976C20.2931 87.5937 20.3168 87.2925 20.3432 86.9886C20.3696 86.6345 20.4039 86.2805 20.4382 85.9317C20.4725 85.5829 20.5068 85.1601 20.549 84.777C20.5912 84.3938 20.6255 84.0054 20.6677 83.6223C20.7099 83.2391 20.7521 82.856 20.7996 82.4755C20.8471 82.095 20.8893 81.7092 20.942 81.3287C20.9816 81.0143 21.0212 80.6972 21.066 80.3801C21.1267 79.9336 21.19 79.487 21.2559 79.0431C21.2559 78.9744 21.277 78.9083 21.2876 78.8423C21.7697 75.5929 22.4248 72.3717 23.2501 69.1924C24.1169 65.8579 25.2233 62.5904 26.5607 59.4158C27.9818 56.0894 29.6464 52.8728 31.541 49.7923H46.9276Z" fill="#06A881"/>
<path opacity="0.1" d="M53.3218 89.3641V125.916H110.5V89.3641H53.3218ZM53.3218 127.047V158.438C53.6489 158.504 53.9708 158.57 54.2952 158.625C54.7305 158.71 55.1683 158.786 55.6141 158.852L55.8779 158.889C56.052 158.919 56.2288 158.942 56.4055 158.963C56.846 159.027 57.2866 159.074 57.7244 159.117C57.9302 159.138 58.1439 159.154 58.3523 159.172L58.8614 159.209C59.1383 159.23 59.4127 159.246 59.687 159.257C59.8558 159.257 60.0247 159.27 60.1961 159.275C60.3676 159.281 60.4599 159.275 60.5971 159.275H61.0956C61.3225 159.275 61.5493 159.275 61.7736 159.275H62.0637C62.2906 159.275 62.5174 159.275 62.7417 159.254H62.7549C62.9131 159.254 63.0688 159.254 63.227 159.236C63.2718 159.238 63.3168 159.238 63.3616 159.236C63.4935 159.236 63.6253 159.236 63.752 159.22C63.7818 159.217 63.8118 159.217 63.8417 159.22C64.1345 159.201 64.4299 159.177 64.728 159.151C65.0261 159.125 65.3083 159.093 65.6064 159.061L66.2052 158.987C68.6521 158.644 71.0717 158.128 73.4461 157.444C78.7825 155.954 83.9976 153.869 89.3314 152.344C96.2215 150.376 103.84 149.406 110.498 151.803V127.047H53.3218ZM110.5 48.6667V0.00527808C104.241 -0.0637061 97.9983 0.668873 91.9244 2.18521C77.4451 5.82901 64.4431 13.7323 53.3218 23.826V48.6641H56.1998V49.7923H53.3218V88.2332H110.5V49.7923H67.9726V48.6614L110.5 48.6667ZM183.96 32.2287C180.377 32.1018 176.816 30.9683 173.593 29.2111C167.436 25.858 162.514 20.6737 157.016 16.3033C145.594 7.1951 131.429 1.69638 116.897 0.332929V48.6667H198.515L198.718 48.4527L183.96 32.2287ZM191.396 30.9075L199.28 39.577V28.6272C196.627 28.9627 194.316 29.7422 191.396 30.8969V30.9075ZM199.28 166.233V127.047H182.467C182.424 126.88 182.377 126.711 182.324 126.542C182.374 126.711 182.419 126.88 182.464 127.047H116.897V155.383C117.52 155.845 118.134 156.334 118.744 156.826C119.401 157.365 120.055 157.91 120.704 158.461L121.358 159.003C121.672 159.267 121.991 159.532 122.307 159.783C122.942 160.295 123.581 160.803 124.225 161.305C124.547 161.558 124.87 161.807 125.196 162.052C130.348 165.997 135.783 169.557 141.456 172.704C142.727 173.414 144.012 174.099 145.304 174.767C146.164 175.211 147.03 175.646 147.903 176.073C149.211 176.712 150.53 177.329 151.859 177.922C164.116 183.434 177.078 187.215 190.372 189.158C193.323 189.593 196.287 189.936 199.264 190.188V166.227H199.528L199.28 166.233ZM116.897 49.7923V88.2332H199.28V49.7923H116.897ZM116.897 89.3588V125.916H199.28V89.3641L116.897 89.3588ZM205.674 28.5743V40.8084L215.735 29.7449C212.401 29.1935 209.047 28.8033 205.674 28.5743ZM205.674 89.3641V125.916H285.8V89.3641H205.674ZM285.517 169.131L285.8 127.047H205.674V190.613C210.836 190.828 216.004 190.766 221.159 190.426H221.248C223.71 190.267 226.161 190.042 228.6 189.749H228.656C241.672 188.232 254.399 184.826 266.438 179.64L285.517 169.131ZM301.258 95.3675C300.953 94.6629 300.641 93.9583 300.321 93.2536C299.725 91.9325 299.097 90.6483 298.448 89.3667H292.197V125.916H308C307.987 115.563 305.37 104.994 301.258 95.3675ZM292.197 127.047V163.247C296.647 158.974 300.411 154.083 303.117 148.492C306.375 141.757 307.865 134.469 307.989 127.044L292.197 127.047ZM292.197 78.7128V88.2253H297.863C296.145 84.9553 294.254 81.7799 292.197 78.7128ZM237.856 35.7483C237.44 35.5871 237.02 35.4259 236.601 35.2727C232.179 33.6355 227.659 32.2747 223.069 31.1982L207.669 48.125L207.368 48.45L207.566 48.6641H262.375C254.741 43.4021 246.511 39.0665 237.856 35.7483ZM263.985 49.7923H206.798L205.674 50.8202V88.2332H215.527H285.8V70.1067C279.445 62.4094 272.111 55.5797 263.985 49.7923Z" fill="#06A881"/>
<path opacity="0.1" d="M46.9276 69.1845V88.2332H20.243C20.243 88.1222 20.2588 88.0086 20.2694 87.8976C20.2931 87.5937 20.3168 87.2925 20.3432 86.9886C20.3696 86.6345 20.4039 86.2805 20.4382 85.9317C20.4725 85.5829 20.5068 85.1601 20.549 84.777C20.5912 84.3938 20.6255 84.0054 20.6677 83.6223C20.7099 83.2391 20.7521 82.856 20.7996 82.4755C20.8471 82.095 20.8893 81.7092 20.942 81.3287C20.9816 81.0143 21.0212 80.6972 21.066 80.3801C21.1267 79.9336 21.19 79.487 21.2559 79.0431C21.2559 78.9744 21.277 78.9083 21.2876 78.8423C21.7697 75.5929 22.4248 72.3717 23.2501 69.1924L46.9276 69.1845Z" fill="#06A881"/>
<path opacity="0.1" d="M20.1586 89.3641H46.9277V125.916H22.1159C22.0526 126.294 21.9892 126.669 21.918 127.047H46.9277V156.519C46.8854 156.519 46.8432 156.488 46.8037 156.472C46.1002 156.192 45.3968 155.895 44.6934 155.581C44.543 155.513 44.3953 155.441 44.2423 155.375C43.5389 155.042 42.8354 154.69 42.132 154.318C41.8867 154.189 41.6414 154.054 41.4013 153.917C37.4961 151.734 33.9468 148.966 30.8762 145.709C30.7839 145.622 30.6995 145.527 30.6124 145.445C30.1851 144.98 29.7657 144.51 29.3595 144.029C29.2065 143.852 29.0587 143.672 28.9084 143.5C28.4283 142.914 27.964 142.306 27.5156 141.696C27.447 141.603 27.3837 141.513 27.3177 141.431C25.4807 138.885 23.9573 136.126 22.7806 133.214C22.7437 133.127 22.7094 133.031 22.6751 132.95C22.3111 132.025 21.9813 131.087 21.6964 130.13C21.5751 129.731 21.4564 129.337 21.3562 128.923C21.3192 128.804 21.2902 128.682 21.2586 128.563C19.7761 122.71 19.6046 116.628 19.6046 110.574C19.6046 109.87 19.6046 109.165 19.6046 108.46C19.6257 105.989 19.6547 103.52 19.6917 101.054C19.7057 100.42 19.7189 99.7829 19.7312 99.1434C19.7682 97.5245 19.8209 95.9021 19.8895 94.2762C19.9053 93.827 19.9264 93.3752 19.9502 92.9286C19.9607 92.6697 19.9739 92.4107 19.9897 92.1518C20.0372 91.2164 20.0935 90.2872 20.1586 89.3641Z" fill="#06A881"/>
<path opacity="0.1" d="M73.4488 55.299V88.2332H53.3192V55.299H56.1892V44.1483H67.9699V55.299H73.4488Z" fill="#06A881"/>
<path opacity="0.1" d="M73.4461 89.3615H53.3192V125.913H73.4461V89.3615Z" fill="#06A881"/>
<path opacity="0.1" d="M53.3218 127.047H73.4488V157.434C71.0746 158.118 68.6549 158.633 66.2078 158.974C66.0073 159.003 65.8095 159.027 65.609 159.048C65.3136 159.082 65.0208 159.114 64.728 159.14L63.8443 159.212H63.7546L63.3642 159.233H63.2297C63.0714 159.233 62.9158 159.251 62.7575 159.254H62.7443C62.5174 159.254 62.2932 159.27 62.0664 159.275H61.7762C61.552 159.275 61.3278 159.275 61.0983 159.275H60.6024H60.1988C60.0273 159.275 59.8585 159.275 59.687 159.254C59.4162 159.244 59.1419 159.228 58.864 159.207L58.3549 159.17C58.1439 159.154 57.9328 159.133 57.7244 159.111C57.2813 159.073 56.8416 159.022 56.4055 158.961L55.8779 158.887L55.6141 158.85C55.1736 158.784 54.7357 158.71 54.2952 158.625C53.9681 158.567 53.6463 158.501 53.3218 158.432V127.047Z" fill="#06A881"/>
<path opacity="0.1" d="M199.278 51.4095H182.68V88.2305H199.278V51.4095Z" fill="#06A881"/>
<path opacity="0.1" d="M199.28 89.3615V125.916H116.897V110.149H160.778V119.45H182.68V89.3615H199.28Z" fill="#06A881"/>
<path opacity="0.1" d="M199.541 166.24C199.454 166.24 199.367 166.241 199.278 166.225V190.204C196.304 189.959 193.341 189.616 190.388 189.176C177.089 187.234 164.123 183.455 151.859 177.946C148.319 176.347 144.851 174.604 141.456 172.717C135.784 169.568 130.351 166.008 125.198 162.066C123.901 161.072 122.622 160.057 121.363 159.019C120.49 158.295 119.625 157.555 118.744 156.839C118.137 156.345 117.522 155.856 116.897 155.391V127.047H182.464C182.416 126.877 182.374 126.711 182.327 126.542C182.377 126.711 182.424 126.877 182.467 127.047H199.28V166.222C199.367 166.225 199.454 166.233 199.541 166.24Z" fill="#06A881"/>
<path opacity="0.1" d="M242.568 48.6667H231.752V45.3004H236.598V35.2727C237.019 35.4277 237.437 35.5862 237.854 35.7483V45.3004H242.565L242.568 48.6667Z" fill="#06A881"/>
<path opacity="0.1" d="M268.627 88.2332H215.527C215.532 88.2344 215.538 88.2344 215.543 88.2332H215.519H205.674V51.4121H208.465V78.6283H221.217V62.5099H231.755V49.7923H242.57V62.5179H253.103V78.6362H268.63L268.627 88.2332Z" fill="#06A881"/>
<path opacity="0.1" d="M205.674 89.3641V125.916H268.63V89.3641H205.674ZM285.71 168.938L285.8 140.005H268.63V127.057H205.674V190.613C210.836 190.828 216.004 190.766 221.159 190.426H221.248C223.71 190.267 226.161 190.042 228.6 189.749H228.656C241.672 188.232 254.399 184.826 266.438 179.64" fill="#06A881"/>
<path opacity="0.1" d="M293.304 127.047H307.989C307.863 134.469 306.375 141.759 303.117 148.492C300.411 154.086 296.647 158.977 292.197 163.249V139.997H293.304V127.047Z" fill="#06A881"/>
<path opacity="0.1" d="M308 125.916H293.304V95.3675H301.258C305.37 104.994 307.987 115.563 308 125.916Z" fill="#06A881"/>
<path opacity="0.1" d="M199.28 61.6459H190.388V73.1903H199.28V61.6459Z" fill="#06A881"/>
<path opacity="0.1" d="M199.28 85.575H190.388V88.2332H199.28V85.575Z" fill="#06A881"/>
<path opacity="0.1" d="M199.28 89.3615H190.388V97.1167H199.28V89.3615Z" fill="#06A881"/>
<path opacity="0.1" d="M199.28 109.504H190.388V121.048H199.28V109.504Z" fill="#06A881"/>
<path opacity="0.1" d="M199.28 133.433H190.388V144.978H199.28V133.433Z" fill="#06A881"/>
<path opacity="0.1" d="M199.28 166.222C199.367 166.222 199.454 166.222 199.544 166.24C199.457 166.24 199.37 166.24 199.28 166.225V168.907H190.388V157.362H199.28V166.222Z" fill="#06A881"/>
<path opacity="0.1" d="M199.28 181.289V190.204C196.305 189.959 193.341 189.616 190.388 189.176V181.289H199.28Z" fill="#06A881"/>
<path opacity="0.1" d="M155.006 125.067H116.897V125.916H155.006V125.067Z" fill="#06A881"/>
<path opacity="0.1" d="M155.006 127.044H116.897V130.294H155.006V127.044Z" fill="#06A881"/>
<path opacity="0.1" d="M155.006 140.948H116.897V146.175H155.006V140.948Z" fill="#06A881"/>
<path opacity="0.1" d="M155.006 156.828V162.055H125.198C123.901 161.065 122.622 160.049 121.363 159.006C120.487 158.284 119.622 157.545 118.744 156.828H155.006Z" fill="#06A881"/>
<path opacity="0.1" d="M155.006 172.706V177.946H151.859C148.319 176.347 144.851 174.604 141.456 172.717L155.006 172.706Z" fill="#06A881"/>
<path opacity="0.1" d="M228.661 92.9048H221.159V100.42H228.661V92.9048Z" fill="#06A881"/>
<path opacity="0.1" d="M66.2263 57.8911H58.7242V65.406H66.2263V57.8911Z" fill="#06A881"/>
<path opacity="0.1" d="M66.2263 75.3465H58.7242V82.8613H66.2263V75.3465Z" fill="#06A881"/>
<path opacity="0.1" d="M66.2263 92.8018H58.7242V100.317H66.2263V92.8018Z" fill="#06A881"/>
<path opacity="0.1" d="M66.2263 110.254H58.7242V117.769H66.2263V110.254Z" fill="#06A881"/>
<path opacity="0.1" d="M66.2263 127.71H58.7242V135.225H66.2263V127.71Z" fill="#06A881"/>
<path opacity="0.1" d="M66.2263 145.165H58.7242V152.68H66.2263V145.165Z" fill="#06A881"/>
<path opacity="0.1" d="M257.3 92.9048H249.798V100.42H257.3V92.9048Z" fill="#06A881"/>
<path opacity="0.1" d="M228.661 111.441H221.159V118.956H228.661V111.441Z" fill="#06A881"/>
<path opacity="0.1" d="M257.3 111.441H249.798V118.956H257.3V111.441Z" fill="#06A881"/>
<path opacity="0.1" d="M228.661 129.974H221.159V137.489H228.661V129.974Z" fill="#06A881"/>
<path opacity="0.1" d="M257.3 129.974H249.798V137.489H257.3V129.974Z" fill="#06A881"/>
<path opacity="0.1" d="M228.661 148.51H221.159V156.025H228.661V148.51Z" fill="#06A881"/>
<path opacity="0.1" d="M257.3 148.51H249.798V156.025H257.3V148.51Z" fill="#06A881"/>
<path opacity="0.1" d="M228.661 167.046H221.159V174.561H228.661V167.046Z" fill="#06A881"/>
<path opacity="0.1" d="M257.3 167.046H249.798V174.561H257.3V167.046Z" fill="#06A881"/>
<path opacity="0.1" d="M221.159 190.426V185.58H228.658V189.736L221.159 190.426Z" fill="#06A881"/>
<path opacity="0.1" d="M21.2559 78.8344V83.1334H46.9276V78.8344H21.2559ZM23.812 82.8639H21.7017V79.1065H23.812V82.8639ZM26.3681 82.8639H24.2578V79.1065H26.3681V82.8639ZM28.9189 82.8639H26.8086V79.1065H28.9189V82.8639ZM31.475 82.8639H29.3647V79.1065H31.475V82.8639ZM34.0285 82.8639H31.9182V79.1065H34.0285V82.8639ZM36.5846 82.8639H34.4743V79.1065H36.5846V82.8639ZM39.1407 82.8639H37.0304V79.1065H39.1407V82.8639ZM41.6941 82.8639H39.5838V79.1065H41.6941V82.8639ZM44.2476 82.8639H42.1373V79.1065H44.2476V82.8639ZM46.8037 82.8639H44.6934V79.1065H46.8037V82.8639Z" fill="#06A881"/>
<path opacity="0.1" d="M21.2559 91.3485V95.6476H46.9276V91.3485H21.2559ZM23.812 95.3781H21.7017V91.6206H23.812V95.3781ZM26.3681 95.3781H24.2578V91.6206H26.3681V95.3781ZM28.9189 95.3781H26.8086V91.6206H28.9189V95.3781ZM31.475 95.3781H29.3647V91.6206H31.475V95.3781ZM34.0285 95.3781H31.9182V91.6206H34.0285V95.3781ZM36.5846 95.3781H34.4743V91.6206H36.5846V95.3781ZM39.1407 95.3781H37.0304V91.6206H39.1407V95.3781ZM41.6941 95.3781H39.5838V91.6206H41.6941V95.3781ZM44.2476 95.3781H42.1373V91.6206H44.2476V95.3781ZM46.8037 95.3781H44.6934V91.6206H46.8037V95.3781Z" fill="#06A881"/>
<path opacity="0.1" d="M21.2559 103.865V108.162H46.9276V103.865H21.2559ZM23.812 107.89H21.7017V104.132H23.812V107.89ZM26.3681 107.89H24.2578V104.132H26.3681V107.89ZM28.9189 107.89H26.8086V104.132H28.9189V107.89ZM31.475 107.89H29.3647V104.132H31.475V107.89ZM34.0285 107.89H31.9182V104.132H34.0285V107.89ZM36.5846 107.89H34.4743V104.132H36.5846V107.89ZM39.1407 107.89H37.0304V104.132H39.1407V107.89ZM41.6941 107.89H39.5838V104.132H41.6941V107.89ZM44.2476 107.89H42.1373V104.132H44.2476V107.89ZM46.8037 107.89H44.6934V104.132H46.8037V107.89Z" fill="#06A881"/>
<path opacity="0.1" d="M21.2559 116.379V120.676H46.9276V116.379H21.2559ZM23.812 120.406H21.7017V116.644H23.812V120.406ZM26.3681 120.406H24.2578V116.644H26.3681V120.406ZM28.9189 120.406H26.8086V116.644H28.9189V120.406ZM31.475 120.406H29.3647V116.644H31.475V120.406ZM34.0285 120.406H31.9182V116.644H34.0285V120.406ZM36.5846 120.406H34.4743V116.644H36.5846V120.406ZM39.1407 120.406H37.0304V116.644H39.1407V120.406ZM41.6941 120.406H39.5838V116.644H41.6941V120.406ZM44.2476 120.406H42.1373V116.644H44.2476V120.406ZM46.8037 120.406H44.6934V116.644H46.8037V120.406Z" fill="#06A881"/>
<path opacity="0.1" d="M21.3799 128.888C21.4802 129.295 21.5989 129.697 21.7202 130.096V129.16H23.8305V132.915H22.6988C22.7305 133.005 22.7648 133.098 22.8017 133.179H46.9382V128.888H21.3799ZM26.3919 132.915H24.2816V129.16H26.3919V132.915ZM28.9427 132.915H26.8324V129.16H28.9427V132.915ZM31.4988 132.915H29.3885V129.16H31.4988V132.915ZM34.0522 132.915H31.9419V129.16H34.0522V132.915ZM36.6083 132.915H34.498V129.16H36.6083V132.915ZM39.1644 132.915H37.0541V129.16H39.1644V132.915ZM41.7179 132.915H39.6076V129.16H41.7179V132.915ZM44.2713 132.915H42.161V129.16H44.2713V132.915ZM46.8274 132.915H44.7171V129.16H46.8274V132.915Z" fill="#06A881"/>
<path opacity="0.1" d="M27.3257 141.402C27.3943 141.487 27.4576 141.582 27.5235 141.667H28.919V143.471L29.37 144V141.656H31.4803V145.445H30.6125C30.6969 145.532 30.7787 145.625 30.8763 145.709H46.9224V141.402H27.3257ZM34.0417 145.445H31.9314V141.672H34.0417V145.445ZM36.5978 145.445H34.4875V141.672H36.5978V145.445ZM39.1539 145.445H37.0436V141.672H39.1539V145.445ZM41.7073 145.445H39.597V141.672H41.7073V145.445ZM44.2608 145.445H42.1505V141.672H44.2608V145.445ZM46.8169 145.445H44.7066V141.672H46.8169V145.445Z" fill="#06A881"/>
<path opacity="0.1" d="M41.4092 153.917C41.6519 154.054 41.8972 154.181 42.1426 154.316V154.183H44.2529V155.375C44.4059 155.441 44.5509 155.513 44.7013 155.581V154.183H46.8116V156.472C46.8517 156.49 46.8932 156.505 46.9356 156.517V153.917H41.4092Z" fill="#06A881"/>
<path opacity="0.1" d="M199.278 166.222H199.542H199.278ZM182.324 126.542C182.374 126.711 182.419 126.88 182.464 127.047C182.424 126.88 182.377 126.711 182.324 126.542ZM56.1998 48.6667V49.7923H67.9831V48.6614L56.1998 48.6667ZM199.28 166.222H199.544H199.28ZM182.324 126.542C182.374 126.711 182.419 126.88 182.464 127.047C182.424 126.88 182.377 126.711 182.324 126.542ZM199.278 166.222H199.542H199.278ZM182.324 126.542C182.374 126.711 182.419 126.88 182.464 127.047C182.424 126.88 182.377 126.711 182.324 126.542Z" fill="#06A881"/>
<path opacity="0.1" d="M231.982 228C246.178 228 257.685 226.149 257.685 223.865C257.685 221.581 246.178 219.729 231.982 219.729C217.786 219.729 206.279 221.581 206.279 223.865C206.279 226.149 217.786 228 231.982 228Z" fill="#06A881"/>
<path opacity="0.1" d="M116.058 223.865C130.254 223.865 141.762 222.013 141.762 219.729C141.762 217.446 130.254 215.594 116.058 215.594C101.863 215.594 90.3549 217.446 90.3549 219.729C90.3549 222.013 101.863 223.865 116.058 223.865Z" fill="#06A881"/>
<path d="M145.65 110.384C145.643 110.358 145.63 110.334 145.61 110.315C145.217 109.927 140.205 102.827 140.205 102.827C140.205 102.827 139.941 102.034 139.514 101.004C139.651 100.826 139.754 100.624 139.817 100.409C139.841 100.318 139.857 100.225 139.868 100.132C139.868 100.103 139.889 100.079 139.897 100.05C139.988 99.6914 139.979 99.3146 139.87 98.9611C139.841 99.0518 139.805 99.1401 139.762 99.2253C139.663 98.9175 139.53 98.6216 139.366 98.3428C138.702 97.196 137.752 96.2289 137.053 95.1112C135.995 93.3746 135.574 91.3225 135.863 89.3086C135.863 89.4117 135.863 89.5174 135.863 89.6204C135.89 89.221 135.943 88.8238 136.022 88.4314C136.132 87.9847 136.279 87.5481 136.462 87.126C137.09 85.686 138.106 84.4308 138.723 82.9855C138.93 82.498 139.087 81.9907 139.192 81.4714C139.41 80.6042 139.489 79.7079 139.427 78.8159C139.427 79.0272 139.393 79.2386 139.361 79.4474C139.294 77.3026 138.43 75.2603 136.937 73.7214C134.782 71.5521 131.688 70.7091 128.728 70.2652C127.484 70.1199 126.296 69.6657 125.272 68.9441C124.135 68.2068 122.666 68.0298 121.337 68.191C119.809 68.3565 118.389 69.0597 117.33 70.1754C115.924 71.7238 115.314 73.9169 113.674 75.2223C112.679 76.015 111.418 76.3849 110.26 76.9239C109.102 77.463 108.007 78.2451 107.636 79.4025C107.636 79.4025 107.636 79.3866 107.636 79.3787V79.4447L107.62 79.487C107.235 80.8557 107.978 82.2483 108.366 83.6144C108.77 85.028 108.796 86.5209 108.817 87.9822C108.846 89.7684 108.873 91.5572 108.844 93.3461C108.83 94.049 108.807 94.7598 108.754 95.46C108.13 95.6491 107.523 95.8931 106.942 96.1893C106.351 96.5751 104.14 98.9664 104.14 98.9664L99.8169 115.513L99.8749 115.579L99.8169 115.803L100.036 115.753C100.648 116.414 102.476 118.295 104.449 119.468L104.634 122.713C104.634 122.713 104.855 125.969 107.844 127.313C107.913 128.442 108.126 133.024 107.137 134.839C106.452 136.165 106.13 137.649 106.203 139.141C106.203 139.141 106.549 141.894 106.156 143.342C105.926 144.31 105.909 145.316 106.106 146.291C106.106 146.291 106.106 146.61 106.106 147.16C106.106 150.09 106.14 159.481 106.106 160.544C106.055 161.799 106.106 180.361 106.106 180.361C106.106 180.361 105.86 189.638 105.074 192.151C104.288 194.664 104.486 202.985 104.486 202.985C104.486 202.985 103.993 212.896 105.736 214.852C105.736 214.939 105.72 215.029 105.718 215.116C105.718 215.156 105.718 215.2 105.718 215.24C105.697 215.993 105.842 216.794 106.488 217.04C107.807 217.547 109.551 219.069 109.88 219.505C110.21 219.941 112.128 221.027 114.629 220.736C116.195 220.56 117.772 220.487 119.348 220.52C119.348 220.52 120.334 220.34 120.015 219.111C119.809 218.345 119.039 217.166 118.49 216.392C118.591 216.419 118.688 216.44 118.781 216.458L118.875 216.477H118.949C118.99 216.479 119.03 216.479 119.071 216.477H119.123C119.173 216.481 119.222 216.481 119.271 216.477C119.933 216.413 122.402 217.565 122.843 218.326C123.283 219.087 124.837 219.666 126.008 219.811C126.705 219.896 128.461 219.753 129.936 219.563C130.679 219.486 131.414 219.352 132.136 219.161C132.484 219.029 132.558 218.606 132.458 218.131C132.339 217.527 132.017 216.982 131.545 216.588C131.118 216.284 130.553 215.483 130.137 214.828L130.026 214.651C130.762 213.948 132.091 211.649 132.495 211.174C132.985 210.595 131.703 189.432 131.703 189.432V178.823L133.669 168.782L135.043 163.469L136.222 155.446C136.222 155.446 138.285 146.077 137.649 145.157C137.649 145.139 137.122 135.492 136.568 133.174C136.328 132.141 136.388 129.816 136.531 127.554C136.68 127.406 136.783 127.218 136.83 127.014C136.877 126.809 136.864 126.595 136.794 126.397C136.755 126.261 136.704 126.129 136.641 126.003C136.641 125.963 136.641 125.921 136.641 125.881C137.781 125.356 138.972 124.951 140.195 124.671C142.16 124.285 141.669 123.271 141.669 123.271C141.669 123.271 142.112 122.401 142.405 121.87C142.698 121.339 142.455 116.652 142.405 116.266C142.387 116.11 142.265 115.249 142.126 114.271C142.756 113.822 143.576 113.264 144.471 112.736C146.172 111.726 145.79 110.661 145.65 110.384ZM120.01 177.375C120.01 177.375 118.535 181.143 119.126 182.108C119.717 183.072 119.028 186.653 119.028 186.653L118.535 191.966C118.535 191.966 117.161 201.822 117.651 204.14C118.037 205.958 118.179 211.388 118.224 213.652C118.19 213.665 118.158 213.681 118.126 213.7L118.06 213.734C118.287 212.844 118.192 211.041 117.066 207.416L116.971 192.442C116.971 192.442 116.797 175.145 118.161 173.211C119.524 171.277 120.007 167.992 120.007 167.992C120.007 167.992 119.712 172.73 119.519 173.985C119.327 175.24 120.01 177.375 120.01 177.375ZM117.264 214.595C117.251 214.627 117.235 214.659 117.224 214.688L117.15 214.593C117.188 214.596 117.226 214.597 117.264 214.595Z" fill="url(#paint0_linear_5_189)"/>
<path d="M132.302 220.53C131.54 220.823 127.406 221.323 126.251 221.183C125.096 221.043 123.566 220.456 123.13 219.69C122.695 218.924 120.255 217.766 119.601 217.84C119.333 217.848 119.065 217.811 118.81 217.729C118.358 217.592 117.917 217.423 117.491 217.222C117.431 216.889 117.441 216.547 117.52 216.218C117.535 216.151 117.554 216.086 117.578 216.022C117.732 215.589 118.05 215.234 118.464 215.034L118.559 214.989C118.742 214.91 118.933 214.851 119.129 214.815C121.202 214.416 129.757 215.216 129.757 215.216C129.757 215.216 129.997 215.647 130.326 216.181C130.738 216.841 131.297 217.647 131.719 217.951C132.187 218.352 132.504 218.9 132.619 219.505C132.719 219.973 132.645 220.401 132.302 220.53Z" fill="white"/>
<path opacity="0.1" d="M132.302 220.53C131.54 220.823 127.409 221.323 126.254 221.183C125.098 221.043 123.568 220.453 123.13 219.69C122.692 218.926 120.258 217.766 119.604 217.84C118.949 217.914 117.493 217.222 117.493 217.222C117.493 217.222 117.266 216.165 117.926 215.444L119.245 216.382C119.245 216.382 122.774 217.478 123.428 218.495C124.083 219.513 125.275 220.081 126.997 220.184C128.285 220.268 131.242 219.766 132.627 219.515C132.719 219.973 132.648 220.401 132.302 220.53Z" fill="black"/>
<path d="M119.675 221.878C118.119 221.847 116.563 221.921 115.016 222.097C112.539 222.388 110.648 221.304 110.318 220.858C109.989 220.411 108.282 218.902 106.971 218.374C106.33 218.126 106.179 217.317 106.208 216.561C106.208 216.522 106.208 216.477 106.208 216.437C106.233 215.958 106.303 215.483 106.419 215.018L116.683 214.799L117.572 216.006L117.71 216.191L118.25 216.929C118.25 216.929 118.496 217.251 118.817 217.721C119.361 218.514 120.121 219.685 120.324 220.459C120.648 221.698 119.675 221.878 119.675 221.878Z" fill="white"/>
<path opacity="0.1" d="M119.675 221.878C118.119 221.847 116.563 221.921 115.016 222.097C112.542 222.388 110.648 221.304 110.321 220.858C109.994 220.411 108.282 218.889 106.971 218.379C106.33 218.131 106.179 217.322 106.208 216.567C106.942 216.738 108.482 217.177 109.086 217.941C109.878 218.961 111.294 220.675 113.307 220.784C114.932 220.871 118.889 220.58 120.34 220.464C120.651 221.698 119.675 221.878 119.675 221.878Z" fill="black"/>
<path opacity="0.1" d="M118.453 215.023C118.335 215.906 117.968 216.144 117.704 216.197C117.64 216.209 117.574 216.209 117.509 216.197C117.474 216.194 117.44 216.189 117.406 216.181C117.406 216.181 108.189 218.221 106.327 216.569C106.28 216.527 106.236 216.481 106.195 216.432C106.22 215.953 106.29 215.478 106.406 215.013L116.67 214.794L117.559 216.001C117.713 215.568 118.032 215.212 118.446 215.013L118.453 215.023Z" fill="black"/>
<path opacity="0.1" d="M130.324 216.17C130.118 216.397 129.947 216.527 129.838 216.482C129.353 216.286 125.375 215.607 124.112 216.191C122.848 216.775 118.572 216.286 118.572 216.286C118.572 216.286 118.572 215.779 118.548 214.965C118.731 214.886 118.922 214.828 119.118 214.791C121.192 214.392 129.746 215.193 129.746 215.193C129.746 215.193 129.997 215.636 130.324 216.17Z" fill="black"/>
<path d="M136.343 156.4L135.178 164.47L133.822 169.818L131.88 179.928V190.629C131.88 190.629 133.141 211.921 132.656 212.503C132.17 213.084 130.326 216.395 129.841 216.202C129.356 216.009 125.378 215.327 124.114 215.909C122.851 216.49 118.575 216.006 118.575 216.006C118.575 216.006 118.477 207.744 117.992 205.411C117.506 203.077 118.865 193.161 118.865 193.161L119.35 187.815C119.35 187.815 120.031 184.216 119.448 183.244C118.865 182.272 120.321 178.488 120.321 178.488C120.321 178.488 119.643 176.345 119.838 175.082C120.034 173.819 120.321 169.055 120.321 169.055C120.321 169.055 119.838 172.363 118.49 174.305C117.142 176.247 117.314 193.652 117.314 193.652L117.409 208.714C119.838 216.688 117.409 215.909 117.409 215.909C117.409 215.909 108.192 217.951 106.33 216.297C104.467 214.643 105 204.232 105 204.232C105 204.232 104.808 195.872 105.583 193.346C106.359 190.82 106.604 181.484 106.604 181.484C106.604 181.484 106.554 162.816 106.604 161.556C106.641 160.499 106.604 151.036 106.604 148.08C106.604 147.53 106.604 147.205 106.604 147.205L107.717 144.436L120.907 142.782H127.216C127.216 142.782 136.713 145.017 137.694 145.982C137.715 145.998 137.733 146.017 137.747 146.04C138.383 146.972 136.343 156.4 136.343 156.4Z" fill="#06A881"/>
<path opacity="0.1" d="M120.329 198.789C120.329 198.789 123.231 205.788 124.6 206.275C125.969 206.761 120.329 198.789 120.329 198.789Z" fill="black"/>
<path opacity="0.1" d="M121.403 209.094C121.403 209.094 131.2 209.58 131.102 210.65C131.004 211.721 121.403 209.094 121.403 209.094Z" fill="black"/>
<path opacity="0.1" d="M108.295 206.296C108.683 206.663 115.768 207.353 115.185 208.024C114.602 208.695 108.878 210 108.878 210L108.295 206.296Z" fill="black"/>
<path opacity="0.1" d="M107.132 194.22C107.132 194.511 108.588 203.553 108.978 203.941C109.369 204.33 112.568 204.718 112.568 204.718L107.132 194.22Z" fill="black"/>
<path d="M117.696 70.6272C116.306 72.1836 115.705 74.3899 114.085 75.7058C113.101 76.4985 111.856 76.8764 110.711 77.4154C109.566 77.9545 108.432 78.7762 108.092 79.997C107.712 81.371 108.445 82.7741 108.83 84.1481C109.229 85.5697 109.253 87.0547 109.276 88.5423C109.303 90.3418 109.332 92.1412 109.3 93.9406C109.253 96.7442 109.02 99.6772 107.535 102.053C112.898 103.762 118.601 103.995 124.225 104.214C125.306 104.291 126.392 104.264 127.467 104.132C128.399 103.946 129.321 103.712 130.229 103.432C132.024 102.956 133.874 102.719 135.731 102.726C136.541 102.726 137.367 102.777 138.148 102.565C138.929 102.354 139.68 101.812 139.891 101.03C140.079 100.327 139.804 99.5794 139.446 98.9479C138.791 97.7958 137.863 96.834 137.161 95.6978C136.445 94.4976 136.02 93.1458 135.92 91.751C135.821 90.3563 136.05 88.9577 136.589 87.6677C137.211 86.2171 138.214 84.954 138.826 83.5007C139.452 81.9404 139.619 80.2326 139.306 78.5802C138.993 76.9278 138.213 75.4001 137.058 74.1786C134.93 71.996 131.875 71.1504 128.952 70.7012C127.721 70.5556 126.547 70.1012 125.539 69.3801C124.418 68.6402 122.964 68.4605 121.651 68.6243C120.135 68.7944 118.731 69.5054 117.696 70.6272Z" fill="#3F3D56"/>
<g opacity="0.1">
<path opacity="0.1" d="M136.671 86.1431C136.133 87.4163 135.902 88.7987 135.998 90.1779C136.057 89.1917 136.284 88.2229 136.671 87.3136C137.29 85.863 138.293 84.5999 138.905 83.1467C139.405 81.9331 139.616 80.6194 139.519 79.31C139.465 80.2277 139.257 81.1299 138.905 81.9787C138.293 83.432 137.29 84.6924 136.671 86.1431Z" fill="black"/>
<path opacity="0.1" d="M109.355 88.183C109.371 89.2188 109.387 90.2572 109.39 91.293C109.39 89.8661 109.377 88.4419 109.355 87.0177C109.334 85.5406 109.308 84.0451 108.91 82.6208C108.646 81.7172 108.255 80.8003 108.118 79.8887C107.883 81.1834 108.551 82.4966 108.91 83.7888C109.308 85.1998 109.334 86.7059 109.355 88.183Z" fill="black"/>
<path opacity="0.1" d="M138.237 101.054C137.446 101.268 136.634 101.22 135.824 101.215C133.968 101.203 132.119 101.436 130.324 101.907C129.416 102.187 128.494 102.419 127.562 102.605C126.486 102.739 125.399 102.767 124.317 102.689C118.883 102.475 113.373 102.246 108.168 100.689C108.014 101.035 107.838 101.37 107.641 101.693C113.004 103.4 118.707 103.635 124.328 103.855C125.41 103.932 126.496 103.904 127.573 103.77C128.501 103.586 129.419 103.355 130.324 103.075C132.115 102.602 133.961 102.367 135.813 102.375C136.623 102.375 137.446 102.425 138.227 102.211C139.008 101.997 139.759 101.461 139.97 100.679C140.059 100.316 140.05 99.9369 139.944 99.5794C139.709 100.319 138.984 100.835 138.237 101.054Z" fill="black"/>
</g>
<path d="M130.424 97.9226C130.229 98.3613 129.406 102.15 129.211 102.539C129.015 102.927 127.95 109.145 127.852 109.493C127.755 109.842 120.828 108.035 120.828 108.035L116.657 104.534L112.371 100.261C112.371 100.261 112.244 96.4059 115.401 95.1693C115.616 95.0849 115.836 95.016 116.061 94.9632C119.891 94.041 119.506 82.3751 119.506 82.3751L127.367 85.7758C127.367 85.7758 125.911 92.5825 125.961 93.8957C125.974 94.337 126.32 94.6118 126.771 94.7783C127.468 94.977 128.194 95.0556 128.918 95.0108C128.918 95.0108 130.619 97.4867 130.424 97.9226Z" fill="#FBBEBE"/>
<path d="M144.497 110.706L145.613 111C145.613 111 146.439 112.257 144.497 113.428C143.264 114.178 142.081 115.007 140.954 115.909L135.217 117.658L134.112 114.184L139.451 110.125L144.497 110.706Z" fill="#06A881"/>
<path opacity="0.1" d="M144.497 110.706L145.613 111C145.613 111 146.439 112.257 144.497 113.428C143.264 114.178 142.081 115.007 140.954 115.909L135.217 117.658L134.112 114.184L139.451 110.125L144.497 110.706Z" fill="black"/>
<path d="M102.626 114.062L100.395 116.25C100.395 116.25 104.42 120.916 107.517 121.207C110.614 121.498 112.611 117.658 112.611 117.658L109.93 113.431L102.626 114.062Z" fill="#06A881"/>
<path opacity="0.1" d="M102.626 114.062L100.395 116.25C100.395 116.25 104.42 120.916 107.517 121.207C110.614 121.498 112.611 117.658 112.611 117.658L109.93 113.431L102.626 114.062Z" fill="black"/>
<path opacity="0.1" d="M123.824 89.9983C128.112 89.9983 131.587 86.5166 131.587 82.2218C131.587 77.927 128.112 74.4454 123.824 74.4454C119.537 74.4454 116.061 77.927 116.061 82.2218C116.061 86.5166 119.537 89.9983 123.824 89.9983Z" fill="black"/>
<path d="M123.824 89.4143C128.112 89.4143 131.587 85.9327 131.587 81.6379C131.587 77.3431 128.112 73.8615 123.824 73.8615C119.537 73.8615 116.061 77.3431 116.061 81.6379C116.061 85.9327 119.537 89.4143 123.824 89.4143Z" fill="#FBBEBE"/>
<path opacity="0.1" d="M137.752 146.922C135.984 147.125 134.243 147.516 132.558 148.088C129.656 149.055 106.918 148.103 106.602 148.088C106.602 147.538 106.602 147.213 106.602 147.213L107.715 144.444L120.904 142.79H127.214C127.214 142.79 136.71 145.025 137.691 145.99C137.731 146.571 137.752 146.922 137.752 146.922Z" fill="black"/>
<path opacity="0.1" d="M130.424 97.9226C130.229 98.3613 129.406 102.15 129.211 102.539C129.015 102.927 127.95 109.145 127.852 109.493C127.755 109.842 120.828 108.035 120.828 108.035L116.657 104.534L112.371 100.261C112.371 100.261 112.244 96.4059 115.401 95.1693L123.241 104.198L126.771 94.7783C127.468 94.977 128.194 95.0556 128.918 95.0108C128.918 95.0108 130.619 97.4867 130.424 97.9226Z" fill="black"/>
<path d="M123.241 104.489L115.217 95.2407C114.747 94.9403 114.21 94.7616 113.654 94.7206C113.099 94.6795 112.541 94.7774 112.033 95.0055C110.236 95.785 108.005 96.4165 107.422 96.805C106.839 97.1934 104.655 99.5979 104.655 99.5979L111.16 116.644L108.295 127.871C108.295 127.871 108.733 133.608 107.617 135.698C106.938 137.034 106.619 138.525 106.694 140.023C106.694 140.023 107.034 142.795 106.646 144.251C106.42 145.224 106.403 146.235 106.596 147.216C106.596 147.216 129.649 148.188 132.558 147.216C134.243 146.642 135.984 146.251 137.752 146.05C137.752 146.05 137.224 136.326 136.697 133.993C136.169 131.66 137.135 122.766 137.135 122.766L136.504 113.238L140.287 103.461C140.287 103.461 138.237 97.1934 136.101 96.5619C136.101 96.5619 132.22 95.637 131.395 95.201C130.569 94.7651 128.142 94.374 128.142 94.374L126.868 94.8021L123.241 104.489Z" fill="#06A881"/>
<path opacity="0.1" d="M134.437 112.916L117.551 111.766C117.124 111.737 116.754 112.06 116.725 112.488L114.912 139.193C114.883 139.622 115.206 139.992 115.633 140.021L132.519 141.171C132.946 141.2 133.316 140.877 133.345 140.449L135.158 113.744C135.187 113.316 134.864 112.945 134.437 112.916Z" fill="black"/>
<path d="M135.018 112.336L118.133 111.186C117.705 111.157 117.335 111.48 117.306 111.908L115.494 138.613C115.465 139.042 115.787 139.412 116.215 139.441L133.1 140.591C133.528 140.62 133.898 140.297 133.927 139.869L135.739 113.164C135.769 112.736 135.446 112.365 135.018 112.336Z" fill="#3F3D56"/>
<path d="M134.461 114.429L118.402 113.335L116.752 137.647L132.811 138.741L134.461 114.429Z" fill="white"/>
<path opacity="0.1" d="M133.021 120.635L119.903 119.715L119.647 123.377L132.765 124.297L133.021 120.635Z" fill="black"/>
<path opacity="0.1" d="M132.546 135.188L130.465 135.047L130.335 136.955L132.417 137.097L132.546 135.188Z" fill="black"/>
<path opacity="0.1" d="M130.493 130.582L119.837 129.856L119.707 131.765L130.363 132.491L130.493 130.582Z" fill="black"/>
<path d="M132.473 113.52L121.378 112.765L121.179 115.699L132.274 116.454L132.473 113.52Z" fill="#3F3D56"/>
<path opacity="0.1" d="M132.473 113.52L121.378 112.765L121.179 115.699L132.274 116.454L132.473 113.52Z" fill="black"/>
<path opacity="0.1" d="M124.212 146.386C124.212 146.386 124.114 160.776 120.329 169.039C120.329 169.039 124.892 158.15 124.892 157.714C124.892 157.278 127.414 152.706 126.739 151.346C126.064 149.985 124.212 146.386 124.212 146.386Z" fill="black"/>
<path opacity="0.1" d="M124.418 79.6931C124.273 78.4194 124.584 77.1356 125.296 76.0705C125.211 77.1381 125.513 78.2006 126.145 79.064C126.778 79.9275 127.699 80.5344 128.741 80.7738C128.652 80.6965 128.589 80.5941 128.559 80.4799C128.529 80.3658 128.535 80.2453 128.575 80.1344C129.116 80.7474 129.53 81.4741 130.142 82.0131C130.754 82.5521 131.672 82.8745 132.392 82.4914C133.371 81.9629 133.381 80.5704 133.128 79.487C132.584 77.1799 131.469 75.047 129.886 73.2854C129.491 72.7529 128.978 72.3193 128.388 72.0186C127.797 71.7179 127.145 71.5582 126.483 71.552C124.985 71.4358 123.428 71.5679 122.086 72.2417C121.33 72.6547 120.622 73.1501 119.975 73.7188L116.282 76.7363C115.927 76.9928 115.623 77.3136 115.386 77.6823C115.227 77.9905 115.132 78.3275 115.106 78.6732C115.012 79.6614 115.194 80.6565 115.633 81.5466C116.072 82.4367 116.75 83.1866 117.591 83.7121C117.573 82.931 117.788 82.1623 118.207 81.5036C118.626 80.8449 119.232 80.326 119.946 80.0128C120.058 80.1066 120.149 80.2232 120.212 80.3549C120.275 80.4866 120.31 80.6304 120.313 80.7765L121.091 79.3866C121.207 79.1337 121.389 78.9172 121.619 78.7604C122.099 78.4961 122.698 78.8079 123.107 79.1805C123.515 79.5531 123.914 80.0181 124.462 80.0763L124.484 78.0073" fill="black"/>
<path d="M124.418 79.4025C124.272 78.1279 124.584 76.8431 125.296 75.7772C125.059 77.891 126.649 80.0736 128.744 80.4805C128.655 80.4039 128.591 80.3019 128.561 80.1881C128.532 80.0743 128.537 79.9542 128.578 79.8437C129.118 80.4568 129.532 81.1808 130.144 81.7224C130.756 82.2641 131.674 82.5839 132.395 82.1981C133.373 81.6696 133.384 80.2771 133.131 79.1964C132.587 76.8892 131.472 74.7564 129.889 72.9948C129.397 72.3948 128.778 71.9127 128.076 71.5838C127.568 71.3956 127.035 71.2869 126.494 71.2614C124.995 71.1451 123.439 71.2746 122.096 71.9484C121.341 72.3633 120.634 72.8594 119.986 73.4281L116.293 76.4457C115.937 76.7015 115.633 77.0224 115.396 77.3916C115.237 77.6997 115.142 78.0367 115.117 78.3825C115.022 79.3704 115.205 80.365 115.644 81.2546C116.083 82.1443 116.761 82.8937 117.601 83.4188C117.584 82.6379 117.799 81.8694 118.218 81.2109C118.638 80.5523 119.243 80.0333 119.957 79.7195C120.069 79.8136 120.159 79.9303 120.222 80.062C120.285 80.1936 120.32 80.3372 120.324 80.4832L121.099 79.0986C121.214 78.8452 121.397 78.6286 121.627 78.4724C122.107 78.2081 122.706 78.5199 123.115 78.8925C123.523 79.2651 123.922 79.7275 124.47 79.7882L124.492 77.7166" fill="#3F3D56"/>
<path d="M128.095 128.452C127.417 128.109 116.206 129.861 116.206 129.861C116.206 129.861 114.359 129.332 109.896 128.598C105.433 127.863 105.148 123.493 105.148 123.493L104.66 114.744L106.166 113.423L112.618 117.65C112.618 117.65 112.719 119.788 112.618 120.174C112.555 120.438 112.386 120.753 112.402 120.967C112.407 121.024 112.431 121.079 112.47 121.122C112.509 121.165 112.561 121.194 112.618 121.204C113.056 121.315 119.023 122.282 119.023 122.282C119.023 122.282 132.854 121.334 136.301 126C136.574 126.343 136.781 126.733 136.911 127.152C137.765 130.342 128.709 128.756 128.095 128.452Z" fill="#FBBEBE"/>
<path opacity="0.1" d="M136.918 127.171C136.391 127.406 136.064 127.575 136.064 127.575C136.064 127.575 131.115 127.43 128.335 126.42C125.555 125.411 122.175 125.591 122.175 125.591C122.175 125.591 110.59 123.593 112.386 120.985C112.391 121.043 112.415 121.098 112.454 121.141C112.493 121.184 112.545 121.213 112.603 121.223C113.04 121.334 119.007 122.301 119.007 122.301C119.007 122.301 132.838 121.352 136.285 126.019C136.567 126.359 136.782 126.75 136.918 127.171Z" fill="black"/>
<path d="M141.73 111.776C141.73 111.776 142.411 116.588 142.458 116.979C142.505 117.37 142.751 122.082 142.458 122.618C142.165 123.154 141.73 124.026 141.73 124.026C141.73 124.026 142.215 125.046 140.274 125.437C138.332 125.828 136.053 126.991 136.053 126.991C136.053 126.991 131.102 126.846 128.338 125.826C125.573 124.806 122.175 124.999 122.175 124.999C122.175 124.999 107.469 122.47 113.779 119.384C120.089 116.298 124.552 120.478 124.552 120.478L131.587 120.042C131.587 120.042 134.209 118.435 134.937 118.583C135.452 118.649 135.974 118.564 136.441 118.34L136.491 113.235L141.73 111.776Z" fill="#FBBEBE"/>
<path opacity="0.1" d="M106.055 99.9652L104.647 99.8912L100.379 116.538C100.379 116.538 104.987 115.37 106.973 116.538C108.96 117.706 112.603 117.946 112.603 117.946L111.244 104.676L106.055 99.9652Z" fill="black"/>
<path d="M106.055 99.6719L104.647 99.5979L100.379 116.245C100.379 116.245 104.987 115.077 106.973 116.245C108.96 117.413 112.603 117.653 112.603 117.653L111.244 104.383L106.055 99.6719Z" fill="#06A881"/>
<path opacity="0.1" d="M138.335 103.318L140.274 103.757C140.274 103.757 145.225 110.891 145.613 111.29C146.001 111.689 143.766 113.14 142.846 113.14C141.925 113.14 137.412 113.668 136.101 114.889C134.79 116.11 135.336 109.966 135.336 109.826C135.336 109.686 136.963 105.81 136.963 105.81L138.335 103.318Z" fill="black"/>
<path d="M138.335 103.028L140.274 103.464C140.274 103.464 145.225 110.611 145.613 111C146.001 111.388 143.766 112.849 142.846 112.849C141.925 112.849 137.412 113.378 136.101 114.598C134.79 115.819 135.336 109.676 135.336 109.536C135.336 109.396 136.974 105.506 136.974 105.506L138.335 103.028Z" fill="#06A881"/>
<g opacity="0.1">
<path opacity="0.1" d="M125.283 75.8009C125.271 75.5983 125.276 75.3951 125.296 75.1932C124.894 75.7969 124.618 76.4753 124.484 77.1882V77.8012C124.484 77.8012 124.484 77.788 124.484 77.7801V77.9254C124.484 78.3535 124.484 78.7842 124.47 79.2122H124.433V79.4104C124.433 79.3417 124.433 79.2756 124.42 79.2069C123.893 79.1224 123.515 78.6785 123.122 78.3244C122.729 77.9703 122.115 77.6321 121.635 77.9043C121.405 78.0605 121.222 78.2771 121.107 78.5305L120.324 79.9151C120.32 79.7694 120.286 79.6261 120.222 79.4949C120.159 79.3636 120.069 79.2474 119.957 79.1541C119.242 79.4672 118.637 79.9861 118.218 80.6448C117.798 81.3035 117.584 82.0723 117.601 82.8534C116.881 82.401 116.278 81.7834 115.842 81.0514C115.407 80.3195 115.152 79.4943 115.098 78.6441C115.052 79.5935 115.26 80.5379 115.7 81.38C116.14 82.2221 116.796 82.9314 117.601 83.4347C117.584 82.6537 117.799 81.8853 118.218 81.2267C118.638 80.5682 119.243 80.0491 119.957 79.7354C120.069 79.8295 120.159 79.9462 120.222 80.0778C120.285 80.2095 120.32 80.353 120.324 80.499L121.099 79.1144C121.214 78.8611 121.397 78.6444 121.627 78.4882C122.107 78.224 122.706 78.5358 123.115 78.9083C123.523 79.2809 123.922 79.7433 124.47 79.8041C124.47 79.1277 124.477 78.453 124.491 77.7801C124.621 77.0741 124.89 76.4012 125.283 75.8009Z" fill="black"/>
<path opacity="0.1" d="M124.391 78.4618C124.404 78.2821 124.426 78.1024 124.452 77.9333L124.481 77.204C124.402 77.6183 124.372 78.0405 124.391 78.4618Z" fill="black"/>
<path opacity="0.1" d="M132.395 81.6141C131.674 81.9999 130.756 81.6775 130.144 81.1385C129.532 80.5994 129.118 79.8728 128.578 79.2598C128.538 79.3707 128.532 79.4912 128.562 79.6053C128.591 79.7194 128.655 79.8219 128.744 79.8992C128.691 79.8992 128.641 79.8728 128.591 79.8596C129.118 80.4673 129.538 81.1808 130.144 81.7092C130.751 82.2377 131.674 82.5706 132.395 82.1848C133.115 81.7991 133.32 80.8954 133.257 80.0155C133.21 80.7078 132.962 81.3076 132.395 81.6141Z" fill="black"/>
<path opacity="0.1" d="M128.575 79.8543C127.693 79.6135 126.905 79.1083 126.318 78.4065C125.73 77.7048 125.371 76.8399 125.288 75.9278C125.138 78.002 126.699 80.0816 128.744 80.4805C128.657 80.4048 128.594 80.3047 128.564 80.1932C128.534 80.0817 128.538 79.9637 128.575 79.8543Z" fill="black"/>
</g>
<path d="M255.256 123.041C255.256 123.041 254.217 122.895 254.217 121.381C254.217 119.867 253.473 117.032 253.473 117.032C253.473 117.032 252.829 112.099 251.94 111.317C251.051 110.535 249.909 105.942 249.909 105.942C249.909 105.942 249.714 103.45 249.315 102.914C248.917 102.378 248.379 101.064 247.585 99.191C246.791 97.3176 243.488 96.0334 243.488 96.0334C243.488 96.0334 237.503 92.556 235.807 91.4225C235.652 91.3285 235.507 91.2187 235.374 91.0948C235.079 90.709 233.792 90.7011 233.792 90.7011C233.657 89.8476 233.528 88.87 233.486 87.9848C233.486 87.8897 233.486 87.7945 233.486 87.6994C235.377 86.5795 236.801 84.8139 237.498 82.7265C237.529 82.6261 237.556 82.5231 237.585 82.42C237.701 82.3842 237.807 82.3243 237.898 82.2441C237.989 82.164 238.062 82.0654 238.112 81.955C238.263 81.6141 238.268 81.2177 238.458 80.898C238.679 80.5228 239.102 80.322 239.434 80.0419C240.273 79.3258 240.489 78.1236 240.449 77.0323C240.423 76.1444 240.281 75.2513 240.336 74.3714C240.336 74.2974 240.336 74.2235 240.352 74.1495C240.368 74.02 240.386 73.8852 240.41 73.7584C240.539 73.1031 240.821 72.4848 240.98 71.8348C241.138 71.1848 241.154 70.4528 240.785 69.8927C240.244 69.0709 239.117 68.9071 238.128 68.8357C237.007 68.7406 236.018 68.8621 235.287 67.9294C234.952 67.4422 234.574 66.9859 234.158 66.5659C234.01 66.4285 232.575 65.5486 232.575 65.4932C231.171 64.8392 229.579 64.7163 228.091 65.147C227.345 65.3637 226.646 65.7178 225.888 65.8948C224.264 66.2806 222.391 65.8631 221.008 66.7958C220.238 67.3243 219.777 68.1672 219.344 68.9837C218.992 69.6566 218.635 70.3304 218.273 71.0051C217.687 72.1122 217.096 73.2379 216.851 74.4639C216.8 74.7317 216.767 75.0028 216.754 75.2751C216.754 75.3729 216.754 75.4706 216.754 75.5684C216.754 75.6107 216.754 75.653 216.754 75.6952C216.754 75.7851 216.754 75.8749 216.769 75.9595C216.785 76.044 216.769 76.0678 216.788 76.1233C216.806 76.1788 216.812 76.303 216.827 76.3875C216.843 76.4721 216.875 76.6227 216.907 76.7363C216.907 76.7865 216.938 76.8341 216.954 76.8843C216.97 76.9345 217.012 77.0613 217.046 77.1485C217.081 77.2357 217.083 77.241 217.104 77.2859C217.144 77.3784 217.191 77.4683 217.239 77.5502C217.26 77.5845 217.276 77.6189 217.297 77.6532C217.369 77.7769 217.45 77.8952 217.54 78.0073C218.102 78.7128 218.935 79.162 219.55 79.8226C219.55 79.849 219.55 79.8754 219.55 79.9019C219.55 79.9732 219.55 80.0445 219.55 80.1185C219.587 81.5919 219.984 83.0338 220.705 84.3186C221.426 85.6035 222.449 86.6924 223.686 87.4907C223.686 87.5911 223.699 87.6941 223.704 87.7972C223.756 88.5806 223.746 89.3669 223.675 90.1489C223.568 90.0224 223.433 89.9217 223.282 89.854C223.13 89.7864 222.965 89.7535 222.8 89.7578C222.686 89.7522 222.573 89.7619 222.462 89.7869L222.438 89.7684V89.7922C221.858 89.9348 221.143 90.5399 220.46 92.2601C220.46 92.2601 218.381 94.6065 216.798 94.5087C215.216 94.411 211.209 96.9529 211.209 96.9529C211.209 96.9529 207.299 99.4922 206.461 102.082C205.992 103.55 205.429 104.987 204.775 106.383L199.929 116.35L199.04 124.277C199.04 124.277 199.534 127.794 199.436 128.333C199.338 128.872 201.464 133.708 201.464 133.708C201.464 133.708 208.489 146.069 211.359 146.703L211.565 146.56C211.688 146.623 211.818 146.671 211.953 146.703L212.544 146.288C212.58 146.753 212.564 147.22 212.496 147.681C212.103 148.904 212.646 156.868 213.338 158.43C214.029 159.991 213.783 180.47 213.783 180.47L213.686 182.274C213.686 182.274 213.686 182.332 213.709 182.433L213.686 182.861L213.757 182.898C213.831 183.472 213.807 184.055 213.686 184.621C213.438 185.413 213.338 187.651 213.338 187.651C213.338 187.651 211.359 200.303 212.298 202.845C213.237 205.387 214.031 208.172 214.031 208.172C214.031 208.172 215.02 211.343 214.079 211.871C213.137 212.4 210.47 213.338 211.014 214.656C211.515 215.877 213.417 219.148 213.699 219.626L213.675 219.891L213.287 224.1C213.35 224.656 213.501 225.198 213.733 225.706C214.158 226.626 214.981 227.575 216.553 227.472C216.817 227.453 217.12 227.424 217.418 227.384C220.291 226.996 223.826 225.712 223.826 225.712C223.642 225.595 223.475 225.456 223.327 225.297C223.186 225.16 223.074 224.996 222.998 224.814C222.923 224.632 222.885 224.437 222.887 224.24C222.929 223.471 221.496 219.822 221.138 218.921L221.056 218.72C221.056 218.72 224.322 215.298 223.778 212.27C223.778 212.27 220.164 210.156 221.354 208.994C222.544 207.831 224.67 204.502 224.67 204.502C224.67 204.502 224.767 192.043 224.67 190.185C224.568 188.893 224.629 187.594 224.852 186.317C224.891 186.127 224.939 185.939 224.989 185.752C226.636 186 228.299 186.127 229.964 186.129C230.572 186.129 231.188 186.117 231.81 186.092C231.81 186.269 231.818 186.459 231.834 186.663C231.971 189.749 232.227 195.164 232.436 197.174C232.731 200.055 234.364 207.826 234.364 207.826C234.364 207.826 231.249 209.826 234.907 214.765C234.907 214.765 234.907 216.551 234.665 216.812C234.405 217.66 234.197 218.522 234.039 219.394C233.886 220.321 233.823 221.265 234.071 221.751C234.665 222.919 238.226 222.824 238.226 222.824C238.254 222.817 238.284 222.813 238.313 222.81C238.985 222.739 239.665 222.803 240.312 222.998C240.959 223.193 241.561 223.516 242.082 223.947C243.436 225.035 248.569 224.56 251.352 224.211C252.441 224.071 253.169 223.947 253.169 223.947C253.204 223.823 253.217 223.694 253.206 223.566C253.177 222.882 252.642 221.381 249.012 220.041C249.012 220.041 245.599 217.742 245.646 215.74H245.57H245.177C245.425 215.732 245.599 215.732 245.599 215.732C245.599 215.732 244.261 210.846 244.807 210.447C245.353 210.048 243.718 204.634 243.718 204.634C243.718 204.634 242.781 195.544 242.729 194.91C242.732 194.363 242.816 193.82 242.977 193.298L242.729 188.312C242.729 188.312 242.681 186.655 242.729 186.116C242.723 185.648 242.686 185.181 242.618 184.718C242.594 184.533 242.57 184.341 242.544 184.15C243.823 183.825 244.654 183.527 244.654 183.527L244.507 166.18C245.593 164.066 245.794 159.426 245.789 156.139C245.789 154.025 245.694 152.461 245.694 152.461L247.179 150.032C247.179 150.032 247.522 147.126 246.978 146.489C246.738 146.201 246.846 145.902 247.044 145.657C247.148 145.571 247.258 145.493 247.374 145.424C247.361 145.406 247.349 145.386 247.34 145.366C247.443 145.279 247.554 145.201 247.669 145.131C247.669 145.131 247.142 144.312 247.614 143.966C248.057 144.267 248.453 144.507 248.754 144.679C248.732 144.872 248.711 144.983 248.711 144.983L248.838 144.719C249.128 144.882 249.305 144.983 249.305 144.983C249.305 144.983 251.631 140.34 251.581 139.658C251.531 138.977 253.164 136.091 253.164 136.091C253.164 136.091 253.362 134.575 254.253 133.94C255.145 133.306 254.945 128.711 254.945 128.711C254.945 128.711 255.193 126.317 255.786 125.342C256.38 124.367 255.256 123.041 255.256 123.041ZM210.739 121.004L210.784 122.111C210.52 121.685 210.33 121.381 210.33 121.381L210.739 121.004Z" fill="url(#paint1_linear_5_189)"/>
<path d="M249.442 142.975L248.872 145.406C248.872 145.406 244.309 143.067 243.488 140.108C242.668 137.148 244.863 136.02 244.863 136.02L249.118 137.822L249.442 142.975Z" fill="white"/>
<path opacity="0.1" d="M249.442 142.975L248.872 145.406C248.872 145.406 244.309 143.067 243.488 140.108C242.668 137.148 244.863 136.02 244.863 136.02L249.118 137.822L249.442 142.975Z" fill="black"/>
<path d="M223.831 225.709C223.831 225.709 219.61 227.263 216.709 227.458C215.168 227.561 214.358 226.615 213.942 225.704C213.715 225.201 213.567 224.666 213.504 224.118L213.886 219.93L214.087 217.703L220.251 216.096L221.124 218.773L221.206 218.974C221.554 219.87 222.963 223.5 222.921 224.258C222.917 224.455 222.954 224.649 223.028 224.831C223.102 225.013 223.212 225.177 223.351 225.315C223.494 225.466 223.655 225.599 223.831 225.709Z" fill="white"/>
<path d="M252.647 223.579C252.658 223.707 252.645 223.836 252.61 223.96C252.61 223.96 243.583 225.466 241.737 223.96C241.218 223.52 240.613 223.193 239.96 223.001C239.308 222.808 238.623 222.754 237.949 222.842C237.949 222.842 234.456 222.937 233.873 221.785C233.631 221.302 233.694 220.364 233.844 219.441C233.998 218.574 234.202 217.716 234.456 216.873L234.596 216.762L235.427 216.094L245.155 215.806H245.229C245.182 217.798 248.529 220.084 248.529 220.084C252.093 221.405 252.618 222.898 252.647 223.579Z" fill="white"/>
<path opacity="0.1" d="M252.65 223.579C252.659 223.708 252.646 223.836 252.61 223.96C252.61 223.96 243.583 225.466 241.739 223.96C241.22 223.52 240.615 223.193 239.962 223C239.309 222.808 238.624 222.754 237.949 222.842C237.949 222.842 234.454 222.937 233.871 221.785C233.631 221.302 233.691 220.364 233.842 219.439C235.187 219.574 237.31 219.909 238.144 220.712C239.405 221.928 241.542 223.143 242.85 223.241C243.884 223.305 250.033 223.5 252.65 223.579Z" fill="black"/>
<path opacity="0.1" d="M223.831 225.709C223.831 225.709 219.61 227.263 216.709 227.458C215.168 227.561 214.358 226.615 213.942 225.704C215.018 226.066 216.508 226.444 217.292 226.098C218.22 225.683 221.512 225.418 223.359 225.305C223.498 225.46 223.657 225.595 223.831 225.709Z" fill="black"/>
<path d="M230.093 100.491C226.611 99.1355 222.132 94.6567 223.251 92.564C223.498 92.0354 223.645 91.4657 223.686 90.8834C223.758 90.0928 223.768 89.2977 223.717 88.5053C223.639 87.2068 223.483 85.9142 223.251 84.6343C223.251 84.6343 234.121 84.88 233.488 86.4839C233.303 86.9569 233.272 87.7734 233.325 88.685C233.377 89.5966 233.507 90.6351 233.644 91.5097C233.831 92.7067 234.024 93.6236 234.024 93.6236C234.024 93.6236 233.356 94.5563 232.968 94.6065C232.581 94.6567 235.089 102.433 230.093 100.491Z" fill="#CF6F80"/>
<path opacity="0.1" d="M221.196 218.961L221.114 219.05C217.864 215.113 213.934 220.023 213.934 220.023L213.876 219.917L214.076 217.69L220.241 216.083L221.114 218.76L221.196 218.961Z" fill="black"/>
<path opacity="0.1" d="M245.235 216.083C245.235 216.083 242.861 216.035 241.594 217.156C240.328 218.276 234.208 217.396 234.472 217.156C234.549 217.034 234.596 216.895 234.609 216.752L235.44 216.083L245.169 215.795C245.206 215.98 245.235 216.083 245.235 216.083Z" fill="black"/>
<path d="M225.24 185.165C225.063 185.603 224.929 186.057 224.839 186.52C224.619 187.79 224.557 189.083 224.657 190.368C224.754 192.217 224.657 204.613 224.657 204.613C224.657 204.613 222.57 207.918 221.404 209.083C220.238 210.249 223.778 212.341 223.778 212.341C224.306 215.356 221.109 218.76 221.109 218.76C217.859 214.823 213.928 219.729 213.928 219.729C213.928 219.729 211.792 216.03 211.259 214.709C210.726 213.388 213.345 212.476 214.266 211.937C215.187 211.398 214.219 208.238 214.219 208.238C214.219 208.238 213.443 205.466 212.52 202.937C211.596 200.409 213.538 187.823 213.538 187.823C213.538 187.823 213.638 185.585 213.878 184.806C213.998 184.243 214.022 183.664 213.949 183.093C213.934 182.9 213.915 182.742 213.902 182.631C213.889 182.52 213.878 182.472 213.878 182.472L213.915 182.409L215.234 179.946C215.234 179.946 225.873 183.614 225.24 185.165Z" fill="#06A881"/>
<path d="M245.235 215.792C245.235 215.792 242.86 215.742 241.594 216.849C240.328 217.956 234.208 217.092 234.472 216.849C234.736 216.606 234.712 214.809 234.712 214.809C231.122 209.897 234.185 207.905 234.185 207.905C234.185 207.905 232.583 200.176 232.293 197.309C232.09 195.309 231.839 189.911 231.705 186.853C231.647 185.532 231.613 184.621 231.613 184.621L234.52 184.042L234.897 183.968L241.972 182.544C241.972 182.544 242.167 183.865 242.299 184.946C242.365 185.407 242.401 185.872 242.407 186.338C242.362 186.867 242.407 188.523 242.407 188.523L242.649 193.48C242.493 194.001 242.411 194.541 242.407 195.084C242.457 195.718 243.378 204.758 243.378 204.758C243.378 204.758 244.979 210.154 244.433 210.542C243.887 210.93 245.235 215.792 245.235 215.792Z" fill="#06A881"/>
<path opacity="0.1" d="M233.488 86.4919C233.304 86.9649 233.272 87.7813 233.325 88.6929C231.869 89.5713 230.195 90.0203 228.495 89.9885C226.796 89.9567 225.14 89.4454 223.717 88.5133C223.639 87.2148 223.483 85.9221 223.251 84.6422C223.251 84.6422 234.121 84.888 233.488 86.4919Z" fill="black"/>
<path d="M237.685 80.6576C237.714 83.055 236.79 85.3656 235.118 87.0812C233.446 88.7967 231.162 89.7766 228.769 89.8054C226.376 89.8341 224.069 88.9093 222.356 87.2344C220.644 85.5595 219.665 83.2717 219.637 80.8742C219.637 80.8003 219.637 80.7316 219.637 80.6576C219.637 78.2595 220.588 75.9596 222.281 74.2638C223.973 72.5681 226.269 71.6155 228.663 71.6155C231.058 71.6155 233.354 72.5681 235.046 74.2638C236.739 75.9596 237.69 78.2595 237.69 80.6576H237.685Z" fill="#CF6F80"/>
<path opacity="0.1" d="M230.093 100.491C226.611 99.1355 222.132 94.6567 223.251 92.564C223.498 92.0354 223.645 91.4657 223.686 90.8835L228.452 94.81L231.402 97.233L233.644 91.5176C233.831 92.7146 234.024 93.6315 234.024 93.6315C234.024 93.6315 233.356 94.5642 232.968 94.6144C232.581 94.6646 235.089 102.433 230.093 100.491Z" fill="black"/>
<path d="M242.42 117.843L238.439 184.827L233.248 185.168L219.803 146.328L222.008 100.216L222.475 90.4739L228.452 95.3913L231.402 97.8143L233.71 91.9298L238.002 95.6767L242.42 117.843Z" fill="#06A881"/>
<path opacity="0.1" d="M225.24 185.165C225.063 185.603 224.929 186.057 224.839 186.52C221.058 185.937 217.385 184.789 213.944 183.114L213.873 183.077L213.897 182.652V182.43L215.216 179.967C215.216 179.967 225.873 183.614 225.24 185.165Z" fill="black"/>
<path opacity="0.1" d="M234.607 186.531C233.641 186.696 232.667 186.808 231.689 186.867C231.631 185.545 231.597 184.634 231.597 184.634L234.52 184.042L234.607 186.531Z" fill="black"/>
<path opacity="0.1" d="M242.309 184.946C240.434 185.434 237.535 185.984 234.944 185.641L234.907 183.968L241.982 182.544C241.982 182.544 242.169 183.854 242.309 184.946Z" fill="black"/>
<path opacity="0.1" d="M234.897 185.947C224.082 187.797 214.176 182.494 214.176 182.494L214.271 180.697C214.271 180.697 214.517 160.327 213.836 158.765C213.155 157.204 212.625 149.295 213.01 148.088C213.396 146.88 211.604 128.648 211.604 128.648L211.314 121.249L200.686 116.924L205.434 107.007C206.076 105.617 206.627 104.187 207.086 102.726C207.911 100.15 211.744 97.6214 211.744 97.6214C211.744 97.6214 215.675 95.0954 217.228 95.1905C218.782 95.2856 220.818 92.9551 220.818 92.9551C222.322 89.1157 223.683 90.8412 223.683 90.8412C223.683 91.0261 223.683 90.8412 223.609 91.4093C223.082 95.6238 232.14 108.941 232.269 109.179L233.143 130.228L234.016 156.865L234.897 185.947Z" fill="black"/>
<path d="M234.607 185.947C223.791 187.797 213.884 182.494 213.884 182.494L213.981 180.697C213.981 180.697 214.224 160.327 213.543 158.765C212.863 157.204 212.332 149.287 212.72 148.069C213.108 146.851 211.306 128.637 211.306 128.637L211.014 121.239L200.388 116.913L205.136 106.996C205.776 105.607 206.328 104.178 206.788 102.719C207.613 100.15 211.459 97.6188 211.459 97.6188C211.459 97.6188 215.39 95.0927 216.941 95.1878C218.492 95.283 220.539 92.9551 220.539 92.9551C222.045 89.1157 223.704 90.8412 223.704 90.8412C223.704 91.0261 223.546 91.1054 223.63 91.4093C224.791 95.497 231.871 108.941 232 109.179L232.874 130.228L233.728 156.879L234.607 185.947Z" fill="white"/>
<path opacity="0.1" d="M231.692 109.774C230.529 109.287 224.366 102.24 224.366 102.24V100.636C224.142 100.108 222.807 100.43 221.729 100.8L222.193 91.0579L222.72 91.4965C223.873 95.5815 231.565 109.538 231.692 109.774Z" fill="black"/>
<path d="M231.985 109.192C230.819 108.703 224.657 101.659 224.657 101.659V100.052C224.432 99.5239 223.1 99.8463 222.019 100.216L222.475 90.4845L223.003 90.9204C224.166 95.0002 231.855 108.954 231.985 109.192Z" fill="white"/>
<path opacity="0.1" d="M214.176 144.335C214.321 144.335 221.697 143.559 221.697 143.559C221.697 143.559 226.163 152.358 225.87 154.495C225.577 156.633 225.047 158.53 223.251 158.195C221.454 157.859 213.583 158.459 213.583 158.459L214.176 144.335Z" fill="black"/>
<path d="M213.884 143.751C214.031 143.751 221.407 142.975 221.407 142.975C221.407 142.975 225.87 151.787 225.58 153.901C225.29 156.015 224.754 157.936 222.96 157.6C221.167 157.264 213.29 157.864 213.29 157.864L213.884 143.751Z" fill="white"/>
<path d="M219.442 139.632C219.442 139.632 226.21 143.278 226.355 144.388C226.5 145.498 222.91 143.902 222.135 143.707C221.624 143.585 221.105 143.504 220.581 143.463L215.408 143.603L219.442 139.632Z" fill="#CF6F80"/>
<path opacity="0.1" d="M229.8 110.228C230.194 110.228 230.513 109.909 230.513 109.515C230.513 109.121 230.194 108.801 229.8 108.801C229.407 108.801 229.088 109.121 229.088 109.515C229.088 109.909 229.407 110.228 229.8 110.228Z" fill="black"/>
<path d="M229.8 109.937C230.194 109.937 230.513 109.618 230.513 109.224C230.513 108.83 230.194 108.511 229.8 108.511C229.407 108.511 229.088 108.83 229.088 109.224C229.088 109.618 229.407 109.937 229.8 109.937Z" fill="#3F3D56"/>
<path opacity="0.1" d="M231.111 141.112C231.505 141.112 231.824 140.792 231.824 140.398C231.824 140.004 231.505 139.685 231.111 139.685C230.718 139.685 230.399 140.004 230.399 140.398C230.399 140.792 230.718 141.112 231.111 141.112Z" fill="black"/>
<path d="M231.111 140.818C231.505 140.818 231.824 140.499 231.824 140.105C231.824 139.711 231.505 139.392 231.111 139.392C230.718 139.392 230.399 139.711 230.399 140.105C230.399 140.499 230.718 140.818 231.111 140.818Z" fill="#3F3D56"/>
<path opacity="0.1" d="M230.513 125.67C230.906 125.67 231.225 125.35 231.225 124.956C231.225 124.562 230.906 124.243 230.513 124.243C230.119 124.243 229.8 124.562 229.8 124.956C229.8 125.35 230.119 125.67 230.513 125.67Z" fill="black"/>
<path d="M230.513 125.379C230.906 125.379 231.225 125.06 231.225 124.666C231.225 124.272 230.906 123.952 230.513 123.952C230.119 123.952 229.8 124.272 229.8 124.666C229.8 125.06 230.119 125.379 230.513 125.379Z" fill="#3F3D56"/>
<path d="M246.931 143.315C246.931 143.315 247.416 144.045 246.931 144.372C246.445 144.7 246.978 145.54 246.978 145.54C246.978 145.54 245.767 146.248 246.3 146.891C246.833 147.533 246.495 150.415 246.495 150.415L245.039 152.844C245.039 152.844 245.126 154.4 245.132 156.503C245.132 159.785 244.939 164.399 243.873 166.502L244.016 183.759C244.016 183.759 238.917 185.627 234.649 185.057L234.016 157.365C234.016 157.365 234.939 141.661 235.279 138.649C235.478 137.085 235.56 135.509 235.522 133.933C235.522 133.933 235.377 129.219 234.889 127.033C234.889 127.033 234.361 117.553 234.309 114.929C234.285 113.674 234.351 110.011 234.425 106.529C234.506 102.721 234.599 99.1302 234.599 99.1302L233.636 91.4965C233.636 91.4965 234.599 91.4013 234.889 91.7871C235.019 91.9087 235.16 92.0176 235.311 92.1121C236.975 93.2378 242.847 96.6992 242.847 96.6992C242.847 96.6992 246.097 97.994 246.875 99.8489C247.653 101.704 248.194 103.02 248.571 103.548C248.949 104.077 249.154 106.56 249.154 106.56C249.154 106.56 250.273 111.132 251.146 111.906C252.019 112.68 252.647 117.595 252.647 117.595L244.931 123.672C244.931 123.672 244.253 133.782 244.108 134.173C243.963 134.564 246.931 143.315 246.931 143.315Z" fill="white"/>
<path d="M247.224 143.315C247.224 143.315 247.706 144.045 247.224 144.372C246.741 144.7 247.268 145.54 247.268 145.54C247.268 145.54 246.058 146.248 246.59 146.891C247.123 147.533 246.786 150.415 246.786 150.415L245.335 152.844C245.335 152.844 245.422 154.4 245.43 156.503C245.43 159.785 245.237 164.399 244.172 166.502L244.317 183.759C244.317 183.759 239.218 185.627 234.95 185.057L234.319 157.365C234.319 157.365 235.24 141.661 235.583 138.649C235.782 137.085 235.862 135.509 235.823 133.933C235.823 133.933 235.678 129.219 235.192 127.033C235.192 127.033 234.665 117.553 234.609 114.929C234.586 113.674 234.651 110.011 234.725 106.529C234.807 102.721 234.899 99.1302 234.899 99.1302L233.628 91.3934C233.628 91.3934 234.899 91.3934 235.192 91.7871C235.321 91.9102 235.462 92.0191 235.614 92.1121C237.276 93.2378 243.148 96.6992 243.148 96.6992C243.148 96.6992 246.39 97.994 247.181 99.8489C247.973 101.704 248.5 103.02 248.877 103.548C249.255 104.077 249.46 106.56 249.46 106.56C249.46 106.56 250.579 111.132 251.452 111.906C252.325 112.68 252.956 117.595 252.956 117.595L245.24 123.672C245.24 123.672 244.562 133.782 244.414 134.173C244.266 134.564 247.224 143.315 247.224 143.315Z" fill="white"/>
<path opacity="0.1" d="M237.983 101.374L238.682 103.408L235.013 107.107C235.095 103.3 235.187 99.7089 235.187 99.7089L233.916 91.9747C233.916 91.9747 235.187 91.9747 235.48 92.3684C235.609 92.4915 235.75 92.6004 235.902 92.6934L239.02 101.701L237.983 101.374Z" fill="black"/>
<path d="M237.685 100.79L238.384 102.822L234.717 106.521C234.797 102.713 234.892 99.1223 234.892 99.1223L233.617 91.3855C233.617 91.3855 234.892 91.3855 235.182 91.7792C235.311 91.9015 235.452 92.0104 235.604 92.1042L238.74 101.12L237.685 100.79Z" fill="white"/>
<path opacity="0.1" d="M237.685 80.6576C237.686 81.6097 237.536 82.5559 237.242 83.4611C237.192 83.4694 237.141 83.4676 237.092 83.4558C237.043 83.444 236.997 83.4225 236.957 83.3924C236.886 81.0143 235.72 78.7789 234.282 76.879C233.878 76.306 233.389 75.7981 232.831 75.3729C232.267 74.9488 231.566 74.7501 230.863 74.8154C230.072 74.9237 229.373 75.4627 228.574 75.5314C227.519 75.6186 226.574 74.8867 225.527 74.8524C225.101 74.8559 224.681 74.9506 224.295 75.1302C223.909 75.3097 223.565 75.57 223.288 75.8934C222.737 76.544 222.328 77.3028 222.087 78.1209C221.673 79.3624 221.447 80.6594 221.417 81.9682C221.404 82.708 221.333 83.6355 220.647 83.905C220.699 83.3613 220.637 82.8127 220.466 82.2941C220.295 81.7755 220.018 81.2983 219.653 80.8928L219.637 80.8743C219.637 80.8003 219.637 80.7316 219.637 80.6576C219.637 78.2595 220.588 75.9596 222.281 74.2638C223.973 72.5681 226.269 71.6155 228.663 71.6155C231.058 71.6155 233.354 72.5681 235.046 74.2638C236.739 75.9596 237.69 78.2595 237.69 80.6576H237.685Z" fill="black"/>
<path d="M232.409 66.3017C231.039 65.6558 229.479 65.5337 228.025 65.9582C227.294 66.1749 226.606 66.5263 225.865 66.7034C224.282 67.0865 222.435 66.6717 221.077 67.5991C220.323 68.1276 219.869 68.9626 219.447 69.7764L218.392 71.7872C217.817 72.8891 217.236 74.0094 216.996 75.2223C216.756 76.4351 216.901 77.7933 217.669 78.771C218.225 79.4791 219.054 79.9257 219.66 80.5942C220.025 81.0017 220.301 81.4805 220.472 82.0003C220.643 82.5201 220.704 83.0696 220.652 83.6144C221.338 83.3501 221.407 82.4174 221.423 81.6775C221.452 80.3687 221.678 79.0718 222.093 77.8303C222.333 77.0121 222.742 76.2534 223.293 75.6028C223.57 75.279 223.914 75.0183 224.3 74.8383C224.686 74.6583 225.106 74.5631 225.532 74.5591C226.587 74.596 227.534 75.328 228.579 75.2381C229.37 75.1721 230.072 74.633 230.869 74.5247C231.571 74.4581 232.273 74.657 232.837 75.0822C233.394 75.5061 233.883 76.0142 234.285 76.5884C235.725 78.4909 236.894 80.7157 236.962 83.1018C237.26 83.3184 237.69 83.0331 237.838 82.6948C237.986 82.3566 237.991 81.9603 238.178 81.6379C238.395 81.2653 238.809 81.0645 239.133 80.7844C239.956 80.0736 240.162 78.8766 240.13 77.7906C240.099 76.7046 239.888 75.6028 240.093 74.5353C240.217 73.8826 240.497 73.2669 240.65 72.6196C240.803 71.9722 240.821 71.2455 240.46 70.688C239.932 69.8715 238.822 69.7077 237.854 69.6311C236.754 69.5359 235.77 69.6575 235.068 68.73C234.738 68.2467 234.367 67.7923 233.96 67.3719C233.815 67.2318 232.409 66.3599 232.409 66.3017Z" fill="#512E4E"/>
<path opacity="0.1" d="M203.73 122.023L200.976 116.921L200.103 124.795C200.103 124.795 200.589 128.294 200.491 128.83C200.393 129.367 202.48 134.176 202.48 134.176C202.48 134.176 209.373 146.476 212.187 147.107L221.684 140.301L219.162 137.093C219.162 137.093 218.289 136.752 218.07 137.093C218.07 137.093 213.385 129.023 212.902 128.442C212.42 127.86 212.512 126.69 212.512 126.69C212.512 126.69 211.784 125.913 212.026 125.184C212.269 124.454 210.634 121.928 210.634 121.928L212.137 120.52L203.73 122.023Z" fill="black"/>
<path d="M201.122 116.337L200.393 116.921L199.52 124.795C199.52 124.795 200.006 128.294 199.908 128.83C199.811 129.367 201.9 134.176 201.9 134.176C201.9 134.176 208.79 146.476 211.604 147.107L221.117 140.301L218.592 137.093C218.592 137.093 217.719 136.752 217.5 137.093C217.5 137.093 212.818 129.023 212.332 128.442C211.847 127.86 211.945 126.69 211.945 126.69C211.945 126.69 211.217 125.913 211.459 125.184C211.702 124.454 210.051 121.928 210.051 121.928L211.554 120.52L201.122 116.337Z" fill="white"/>
<path opacity="0.1" d="M246.3 147.194C246.828 147.837 246.495 150.722 246.495 150.722L245.039 153.134C245.039 153.134 245.126 154.693 245.132 156.797L242.684 157.563C242.462 157.632 242.227 157.647 241.999 157.607C241.77 157.567 241.554 157.473 241.37 157.332C241.185 157.191 241.036 157.008 240.936 156.799C240.836 156.589 240.788 156.358 240.795 156.126L241.22 142.491L246.931 144.676C246.445 145.015 246.978 145.844 246.978 145.844C246.978 145.844 245.767 146.552 246.3 147.194Z" fill="black"/>
<path d="M246.59 146.904C247.118 147.543 246.786 150.429 246.786 150.429L245.335 152.844C245.335 152.844 245.422 154.4 245.43 156.503L242.937 157.283C242.721 157.351 242.491 157.366 242.267 157.327C242.044 157.288 241.833 157.196 241.652 157.059C241.472 156.921 241.326 156.743 241.229 156.538C241.131 156.332 241.083 156.107 241.09 155.88L241.515 142.198L247.224 144.388C246.736 144.727 247.268 145.556 247.268 145.556C247.268 145.556 246.058 146.262 246.59 146.904Z" fill="white"/>
<path d="M248.484 140.398C248.484 140.398 248.097 142.88 247.126 143.025C246.155 143.17 245.72 147.039 244.752 146.904C243.784 146.769 244.425 143.305 244.459 142.634C244.493 141.963 243.404 139.183 244.216 138.551C245.029 137.92 247.614 138.551 247.614 138.551L248.484 140.398Z" fill="#CF6F80"/>
<path opacity="0.1" d="M250.537 121.294L252.365 117.595C252.365 117.595 253.095 120.414 253.095 121.92C253.095 123.427 254.114 123.575 254.114 123.575C254.114 123.575 255.229 124.896 254.641 125.86C254.053 126.825 253.818 129.213 253.818 129.213C253.818 129.213 254.011 133.782 253.138 134.413C252.265 135.045 252.069 136.554 252.069 136.554C252.069 136.554 250.468 139.421 250.518 140.102C250.568 140.784 248.287 145.4 248.287 145.4C248.287 145.4 249.402 139.664 242.9 137.185C242.9 137.185 242.85 135.24 243.335 134.707C243.821 134.173 244.578 133.914 244.103 131.229C243.628 128.545 243.966 125.308 243.966 124.661C243.966 124.013 245.422 119.978 245.422 119.978L250.537 121.294Z" fill="black"/>
<path d="M251.349 117.066L252.948 117.595C252.948 117.595 253.678 120.414 253.678 121.92C253.678 123.427 254.697 123.575 254.697 123.575C254.697 123.575 255.812 124.896 255.224 125.86C254.636 126.825 254.399 129.213 254.399 129.213C254.399 129.213 254.594 133.782 253.721 134.413C252.847 135.045 252.665 136.554 252.665 136.554C252.665 136.554 251.064 139.421 251.114 140.102C251.164 140.784 248.88 145.4 248.88 145.4C248.88 145.4 249.996 139.664 243.494 137.185C243.494 137.185 243.446 135.24 243.931 134.707C244.417 134.173 245.174 133.914 244.699 131.229C244.224 128.545 244.562 125.308 244.562 124.661C244.562 124.013 246.018 119.978 246.018 119.978L251.349 117.066Z" fill="white"/>
<path opacity="0.1" d="M216.033 212.949C216.033 212.949 218.582 211.345 220.254 212.511C221.926 213.676 216.033 212.949 216.033 212.949Z" fill="black"/>
<path opacity="0.1" d="M235.839 207.99C235.839 207.99 238.094 207.699 239.988 209.741C241.882 211.784 235.839 207.99 235.839 207.99Z" fill="black"/>
<g opacity="0.1">
<path opacity="0.1" d="M239.133 80.2031C238.809 80.4858 238.392 80.684 238.176 81.0566C237.991 81.3763 237.986 81.7726 237.838 82.1135C237.69 82.4544 237.26 82.7371 236.96 82.5204C236.891 80.1423 235.722 77.9095 234.285 76.0071C233.883 75.4337 233.394 74.9265 232.837 74.5036C232.272 74.0774 231.57 73.8777 230.866 73.9434C230.075 74.0517 229.378 74.5908 228.579 74.6595C227.524 74.7467 226.577 74.0147 225.53 73.9804C225.104 73.9836 224.684 74.0782 224.298 74.2578C223.913 74.4374 223.57 74.6978 223.293 75.0215C222.742 75.6721 222.333 76.4308 222.093 77.249C221.678 78.4905 221.452 79.7874 221.423 81.0962C221.407 81.8334 221.338 82.753 220.658 83.0278C220.673 83.2239 220.673 83.4209 220.658 83.617C221.346 83.3528 221.415 82.42 221.43 81.6802C221.46 80.3714 221.686 79.0745 222.1 77.8329C222.341 77.0147 222.75 76.256 223.301 75.6054C223.578 75.2818 223.921 75.0213 224.306 74.8413C224.692 74.6613 225.112 74.5659 225.538 74.5617C226.593 74.5987 227.542 75.3306 228.587 75.2408C229.378 75.1747 230.08 74.6357 230.874 74.5273C231.577 74.4609 232.28 74.6597 232.845 75.0849C233.402 75.5088 233.891 76.0169 234.293 76.591C235.73 78.4935 236.899 80.7184 236.967 83.1044C237.268 83.3211 237.698 83.0357 237.846 82.6975C237.994 82.3592 237.999 81.9629 238.184 81.6405C238.4 81.268 238.817 81.0671 239.141 80.787C239.964 80.0763 240.17 78.8793 240.138 77.7933C240.138 77.7589 240.138 77.7272 240.138 77.6929C240.085 78.6388 239.835 79.598 239.133 80.2031Z" fill="black"/>
<path opacity="0.1" d="M219.658 80.0181C219.054 79.3496 218.225 78.9004 217.669 78.1923C217.199 77.5672 216.931 76.8129 216.901 76.0308C216.818 77.0087 217.091 77.9837 217.669 78.7762C218.225 79.4844 219.054 79.9309 219.658 80.5994C220.241 81.253 220.592 82.0819 220.655 82.9564C220.695 82.4246 220.627 81.8903 220.455 81.3854C220.284 80.8806 220.013 80.4155 219.658 80.0181Z" fill="black"/>
<path opacity="0.1" d="M240.65 72.0382C240.494 72.6856 240.217 73.3013 240.091 73.9539C240.015 74.3953 239.987 74.8436 240.009 75.291C240.018 75.0383 240.045 74.7866 240.091 74.5379C240.217 73.8852 240.494 73.2696 240.65 72.6222C240.739 72.2649 240.769 71.8952 240.737 71.5283C240.72 71.7001 240.691 71.8705 240.65 72.0382Z" fill="black"/>
</g>
<path opacity="0.1" d="M35.0124 221.661C49.208 221.661 60.7158 219.81 60.7158 217.526C60.7158 215.242 49.208 213.39 35.0124 213.39C20.8168 213.39 9.30902 215.242 9.30902 217.526C9.30902 219.81 20.8168 221.661 35.0124 221.661Z" fill="#06A881"/>
<path d="M35.8407 138.306H34.1868V175.608H35.8407V138.306Z" fill="#535461"/>
<path d="M46.2365 175.497L46.131 177.177L45.9859 179.555L45.9253 180.543L45.7775 182.922L45.7142 183.91L45.5692 186.288L43.8994 213.258C43.8282 214.419 43.3178 215.508 42.4722 216.305C41.6267 217.101 40.5097 217.544 39.3491 217.544H30.6784C29.5146 217.545 28.3947 217.099 27.5485 216.299C26.7024 215.498 26.1941 214.404 26.1281 213.24L24.4583 186.269L24.3132 183.891L24.2526 182.903L24.1022 180.525L24.0415 179.537L23.8964 177.159L23.7909 175.478C23.7727 175.156 23.82 174.834 23.9302 174.53C24.0403 174.227 24.2108 173.95 24.4314 173.714C24.652 173.479 24.9181 173.292 25.2134 173.163C25.5087 173.034 25.8271 172.967 26.1492 172.965H43.8809C44.2044 172.967 44.5242 173.035 44.8205 173.165C45.1168 173.295 45.3834 173.485 45.604 173.722C45.8246 173.959 45.9945 174.239 46.1033 174.544C46.212 174.849 46.2574 175.173 46.2365 175.497Z" fill="#3F3D56"/>
<path d="M46.131 177.175L45.9833 179.547H24.0415L23.8938 177.175H46.131Z" fill="#9D9CB5"/>
<path d="M45.9226 180.536L45.7776 182.908H24.2499L24.1022 180.536H45.9226Z" fill="#9D9CB5"/>
<path d="M45.7142 183.899L45.5692 186.269H24.4583L24.3106 183.899H45.7142Z" fill="#9D9CB5"/>
<path d="M21.3799 152.289C31.0134 159.27 35.0256 170.188 35.0256 170.188C35.0256 170.188 23.419 169.789 13.7828 162.808C4.14671 155.827 0.129242 144.917 0.129242 144.917C0.129242 144.917 11.7359 145.308 21.3799 152.289Z" fill="#06A881"/>
<path d="M0.129242 144.917C0.129242 144.917 12.1764 151.615 16.0409 157.161C19.9053 162.708 35.015 170.193 35.015 170.193" stroke="#535461" stroke-width="2" stroke-miterlimit="10"/>
<path d="M27.5868 138.226C32.8309 142.023 35.0151 147.966 35.0151 147.966C35.0151 147.966 28.6842 147.749 23.4533 143.952C18.2224 140.155 16.0251 134.21 16.0251 134.21C16.0251 134.21 22.3454 134.427 27.5868 138.226Z" fill="#06A881"/>
<path d="M16.0251 134.21C16.0251 134.21 22.5828 137.856 24.6878 140.874C26.7928 143.892 35.0151 147.966 35.0151 147.966" stroke="#535461" stroke-width="2" stroke-miterlimit="10"/>
<path d="M42.6332 147.665C36.6109 154.294 35.3369 162.959 35.3369 162.959C35.3369 162.959 43.8281 160.871 49.8451 154.239C55.8621 147.607 57.1415 138.945 57.1415 138.945C57.1415 138.945 48.6554 141.035 42.6332 147.665Z" fill="#06A881"/>
<path d="M57.1467 138.948C57.1467 138.948 49.3017 145.744 47.3075 150.426C45.3133 155.108 35.3369 162.959 35.3369 162.959" stroke="#535461" stroke-width="2" stroke-miterlimit="10"/>
</g>
<defs>
<linearGradient id="paint0_linear_5_189" x1="122.801" y1="220.784" x2="122.801" y2="68.1487" gradientUnits="userSpaceOnUse">
<stop stop-color="#808080" stop-opacity="0.25"/>
<stop offset="0.54" stop-color="#808080" stop-opacity="0.12"/>
<stop offset="1" stop-color="#808080" stop-opacity="0.1"/>
</linearGradient>
<linearGradient id="paint1_linear_5_189" x1="50193.1" y1="143044" x2="50193.1" y2="42998.7" gradientUnits="userSpaceOnUse">
<stop stop-color="#808080" stop-opacity="0.25"/>
<stop offset="0.54" stop-color="#808080" stop-opacity="0.12"/>
<stop offset="1" stop-color="#808080" stop-opacity="0.1"/>
</linearGradient>
<clipPath id="clip0_5_189">
<rect width="308" height="228" fill="white"/>
</clipPath>
</defs>
</svg>
