<svg width="56" height="43" viewBox="0 0 56 43" fill="none" xmlns="http://www.w3.org/2000/svg">
<path d="M28 0C12.5366 0 0 8.93786 0 19.9643C0 24.7212 2.34172 29.0826 6.23438 32.513C4.86281 37.3419 0.295312 41.6562 0.240625 41.7042C0.123109 41.8132 0.044523 41.9499 0.0145724 42.0976C-0.0153781 42.2453 0.00461826 42.3974 0.0720922 42.5352C0.139566 42.6731 0.251562 42.7905 0.39425 42.8731C0.536938 42.9557 0.704068 42.9998 0.875 43C8.12219 43 13.5625 39.9526 16.2531 38.0684C20.0093 39.3039 23.9887 39.934 28 39.9286C43.4645 39.9286 56 30.9907 56 19.9643C56 8.93786 43.4645 0 28 0ZM38.5 22.2679C38.5 22.4715 38.4078 22.6668 38.2437 22.8108C38.0796 22.9548 37.8571 23.0357 37.625 23.0357H31.5V28.4107C31.5 28.6144 31.4078 28.8097 31.2437 28.9537C31.0796 29.0977 30.8571 29.1786 30.625 29.1786H25.375C25.1429 29.1786 24.9204 29.0977 24.7563 28.9537C24.5922 28.8097 24.5 28.6144 24.5 28.4107V23.0357H18.375C18.1429 23.0357 17.9204 22.9548 17.7563 22.8108C17.5922 22.6668 17.5 22.4715 17.5 22.2679V17.6607C17.5 17.4571 17.5922 17.2618 17.7563 17.1178C17.9204 16.9738 18.1429 16.8929 18.375 16.8929H24.5V11.5179C24.5 11.3142 24.5922 11.1189 24.7563 10.9749C24.9204 10.8309 25.1429 10.75 25.375 10.75H30.625C30.8571 10.75 31.0796 10.8309 31.2437 10.9749C31.4078 11.1189 31.5 11.3142 31.5 11.5179V16.8929H37.625C37.8571 16.8929 38.0796 16.9738 38.2437 17.1178C38.4078 17.2618 38.5 17.4571 38.5 17.6607V22.2679Z" fill="#019874"/>
</svg>
